<?xml version="1.0" standalone="no"?>
<!DOCTYPE svg PUBLIC "-//W3C//DTD SVG 20010904//EN"
 "http://www.w3.org/TR/2001/REC-SVG-20010904/DTD/svg10.dtd">
<svg version="1.0" xmlns="http://www.w3.org/2000/svg"
 width="880.000000pt" height="880.000000pt" viewBox="0 0 880.000000 880.000000"
 preserveAspectRatio="xMidYMid meet">
<metadata>
Created by potrace 1.11, written by Peter Selinger 2001-2013
</metadata>
<g transform="translate(0.000000,880.000000) scale(0.100000,-0.100000)"
fill="#000000" stroke="none">
<path d="M4989 8396 c-2 -2 -31 -7 -64 -10 -90 -10 -149 -21 -165 -31 -5 -3
-19 -8 -30 -10 -31 -6 -195 -91 -237 -122 -139 -104 -242 -222 -310 -356 -60
-120 -84 -184 -98 -267 -3 -19 -9 -48 -14 -65 -12 -47 -6 -264 9 -328 7 -31
11 -60 8 -62 -3 -3 -34 -1 -69 6 -116 20 -336 15 -402 -10 -14 -5 -27 -8 -29
-5 -6 5 -99 -26 -115 -39 -7 -5 -13 -7 -13 -3 0 8 -175 -81 -193 -97 -6 -7
-30 -24 -52 -39 -35 -24 -117 -106 -181 -179 -33 -39 -91 -141 -123 -215 -37
-88 -51 -140 -70 -256 -8 -50 -7 -247 2 -288 3 -14 8 -42 11 -64 4 -21 9 -42
12 -47 3 -5 7 -17 9 -26 14 -72 108 -254 158 -309 15 -16 27 -32 27 -35 0 -7
74 -81 537 -536 502 -494 497 -490 533 -495 52 -8 101 10 137 49 37 40 48 79
33 118 -6 16 -149 164 -317 329 -539 530 -719 710 -740 741 -46 68 -99 181
-109 230 -2 11 -7 31 -10 45 -19 79 -24 211 -10 270 2 8 7 34 11 58 4 23 12
45 16 48 5 3 9 13 9 22 0 30 69 154 120 215 89 108 261 224 355 241 14 3 29 7
35 11 42 26 284 28 380 4 161 -41 227 -87 467 -324 388 -384 2728 -2713 2777
-2763 105 -109 167 -117 234 -28 31 41 37 61 34 111 -1 12 -433 449 -1137
1150 -624 622 -1135 1130 -1135 1130 11 -20 -772 772 -799 808 -66 87 -117
212 -137 334 -17 104 5 300 38 341 6 6 7 12 4 12 -12 0 76 159 107 193 75 85
97 106 157 149 102 73 224 121 336 134 43 5 189 8 189 4 0 -1 9 -3 20 -4 72
-9 219 -56 235 -75 3 -3 21 -14 40 -24 19 -10 51 -31 70 -48 19 -17 525 -517
1123 -1112 599 -595 1280 -1272 1514 -1505 235 -233 438 -429 452 -436 40 -19
87 -10 122 23 43 41 60 127 34 167 -17 26 -1103 1109 -2846 2839 -125 124
-232 225 -238 225 -6 0 -11 5 -11 10 0 6 -7 10 -15 10 -8 0 -15 4 -15 8 0 5
-12 15 -27 23 -16 8 -30 16 -33 19 -10 11 -159 80 -173 80 -7 0 -17 3 -21 7
-3 4 -12 8 -19 9 -7 1 -30 6 -52 12 -22 6 -53 14 -70 17 -35 8 -270 17 -276
11z"/>
<path d="M1313 5065 c-12 -6 -36 -27 -53 -46 -25 -28 -30 -41 -28 -79 2 -49
-13 -33 784 -817 489 -480 1022 -1005 1264 -1243 146 -144 429 -422 628 -618
200 -196 384 -384 409 -417 216 -285 188 -689 -65 -956 -96 -102 -252 -191
-373 -213 -13 -3 -24 -5 -24 -6 0 -10 -199 -13 -260 -5 -79 11 -215 58 -223
77 -2 4 -9 8 -16 8 -24 0 -102 65 -229 189 -126 124 -585 580 -2147 2133 -820
816 -806 803 -870 783 -12 -4 -41 -27 -66 -52 -34 -36 -44 -53 -44 -79 0 -32
17 -84 32 -94 7 -5 830 -819 1563 -1545 1105 -1094 1455 -1438 1502 -1475 122
-96 303 -174 453 -197 58 -9 250 -9 365 0 85 6 181 33 214 60 8 7 16 11 18 9
7 -5 101 48 158 90 70 52 157 137 200 193 36 47 85 123 85 131 0 3 8 18 18 32
24 36 78 183 91 252 29 146 29 300 0 410 -12 47 -11 60 4 55 23 -8 96 -17 222
-29 29 -3 127 6 210 19 22 3 76 18 120 33 44 14 82 26 85 27 3 0 12 5 20 10 8
5 20 10 27 11 6 1 24 11 40 21 15 11 54 36 86 57 63 40 199 170 237 226 13 19
27 37 31 40 26 19 115 215 138 305 33 132 36 344 6 465 -3 14 -7 30 -9 35 -22
92 -80 216 -149 320 -46 71 -804 827 -856 855 -95 50 -223 -37 -206 -139 5
-33 42 -72 297 -322 373 -365 508 -499 535 -535 25 -33 105 -184 97 -184 -2 0
0 -8 5 -18 6 -11 12 -30 15 -43 3 -13 9 -45 14 -71 14 -69 7 -224 -12 -296
-66 -248 -246 -438 -494 -521 -77 -26 -117 -32 -227 -35 -154 -4 -292 36 -415
120 -30 20 -206 187 -390 370 -184 183 -585 581 -890 884 -305 303 -840 835
-1187 1181 -348 346 -636 629 -640 629 -5 0 -24 4 -43 8 -22 5 -43 4 -57 -3z"/>
</g>
</svg>
